<svg xmlns="http://www.w3.org/2000/svg" viewBox="-36 -36 674 599" width="674" height="599">
  <path d="M 296.351 7.478 C 285.930 9.369, 276.723 14.260, 269 22.007 C 258.434 32.606, 255.001 41.686, 250.963 69.716 L 249.780 77.932 156.640 78.239 C 52.420 78.583, 59.723 78.083, 43.500 85.987 C 25.133 94.935, 12.052 110.779, 6.337 131 C 3.490 141.073, 3.481 461.907, 6.327 471.942 C 13.968 498.882, 32.703 517.665, 59 524.749 C 67.828 527.127, 279.619 527.472, 289 525.123 C 307.256 520.553, 322 505.079, 322 490.489 L 322 487 401.250 486.997 C 452.666 486.995, 483.661 486.609, 489.500 485.896 C 529.158 481.056, 560.611 452.221, 567.923 414 C 568.502 410.975, 570.120 396.125, 571.519 381 C 572.918 365.875, 575.407 339.100, 577.048 321.500 C 578.690 303.900, 581.161 277.125, 582.540 262 C 583.918 246.875, 585.931 225.725, 587.012 215 C 588.093 204.275, 590.322 180.875, 591.965 163 C 593.608 145.125, 596.126 118.350, 597.559 103.500 C 600.508 72.946, 600.335 64.328, 596.526 52.273 C 589.269 29.299, 569.384 11.576, 546.233 7.449 C 535.238 5.488, 307.168 5.515, 296.351 7.478 M 301 32.935 C 292.836 35.428, 285.237 41.796, 282.440 48.488 C 281.720 50.212, 279.947 57.895, 278.499 65.561 C 277.052 73.227, 273.843 90.075, 271.369 103 C 268.895 115.925, 265.305 135.275, 263.392 146 C 259.467 168.012, 257.247 180.102, 249.532 221.500 C 242.869 257.250, 235.751 296.395, 228.982 334.500 C 223.892 363.158, 217.234 399.952, 212.459 425.817 C 209.310 442.869, 209.274 448.626, 212.287 453.102 C 216.912 459.972, 206.319 459.500, 356 459.500 L 491.500 459.500 499.500 456.776 C 520.535 449.612, 534.771 435.076, 540.905 414.500 C 542.451 409.314, 544.031 395.965, 547 363 C 549.205 338.525, 551.659 311.750, 552.454 303.500 C 554.547 281.776, 556.765 257.417, 558.010 242.500 C 558.607 235.350, 559.739 222.975, 560.526 215 C 563.803 181.786, 565.995 158.793, 566.960 147.500 C 567.524 140.900, 569.110 123.350, 570.485 108.500 C 573.948 71.088, 573.695 63.025, 568.756 53.500 C 566.281 48.725, 559.441 41.492, 554.256 38.164 C 544.266 31.754, 549.491 31.991, 420.540 32.086 C 356.168 32.133, 302.375 32.515, 301 32.935" fill="#FAF9F6" fill-rule="evenodd"/>
</svg>
