<svg xmlns="http://www.w3.org/2000/svg" width="177" height="159" viewBox="0 0 177 159" shape-rendering="crispEdges">
  <rect x="74" y="23" width="12" height="12" fill="#f2922e"/>
  <rect x="86" y="23" width="12" height="12" fill="#f07236"/>
  <rect x="62" y="35" width="12" height="12" fill="#dbb131"/>
  <rect x="74" y="35" width="12" height="12" fill="#f6912e"/>
  <rect x="86" y="35" width="12" height="12" fill="#f37337"/>
  <rect x="98" y="35" width="12" height="12" fill="#f0583b"/>
  <rect x="50" y="47" width="12" height="12" fill="#9ec345"/>
  <rect x="62" y="47" width="12" height="12" fill="#b5b43e"/>
  <rect x="74" y="47" width="12" height="12" fill="#e2993d"/>
  <rect x="86" y="47" width="12" height="12" fill="#f67a34"/>
  <rect x="98" y="47" width="12" height="12" fill="#f86a35"/>
  <rect x="110" y="47" width="12" height="12" fill="#ef5442"/>
  <rect x="50" y="59" width="12" height="12" fill="#86c64e"/>
  <rect x="62" y="59" width="12" height="12" fill="#75b45e"/>
  <rect x="74" y="59" width="12" height="12" fill="#cc954d"/>
  <rect x="86" y="59" width="12" height="12" fill="#ef7947"/>
  <rect x="98" y="59" width="12" height="12" fill="#e16652"/>
  <rect x="110" y="59" width="12" height="12" fill="#e14f59"/>
  <rect x="38" y="71" width="12" height="12" fill="#7cc251"/>
  <rect x="50" y="71" width="12" height="12" fill="#71c25c"/>
  <rect x="62" y="71" width="12" height="12" fill="#5ca98f"/>
  <rect x="74" y="71" width="12" height="12" fill="#5c91b3"/>
  <rect x="86" y="71" width="12" height="12" fill="#8373b0"/>
  <rect x="98" y="71" width="12" height="12" fill="#746fc3"/>
  <rect x="110" y="71" width="12" height="12" fill="#995da8"/>
  <rect x="122" y="71" width="12" height="12" fill="#9c5b97"/>
  <rect x="38" y="83" width="12" height="12" fill="#80c654"/>
  <rect x="50" y="83" width="12" height="12" fill="#54b881"/>
  <rect x="62" y="83" width="12" height="12" fill="#4097de"/>
  <rect x="98" y="83" width="12" height="12" fill="#4a7ee4"/>
  <rect x="110" y="83" width="12" height="12" fill="#706ece"/>
  <rect x="122" y="83" width="12" height="12" fill="#8f64b4"/>
  <rect x="38" y="95" width="12" height="12" fill="#61c37d"/>
  <rect x="50" y="95" width="12" height="12" fill="#43aeab"/>
  <rect x="110" y="95" width="12" height="12" fill="#4a80ea"/>
  <rect x="122" y="95" width="12" height="12" fill="#6c73d8"/>
  <rect x="26" y="107" width="12" height="12" fill="#6dc694"/>
  <rect x="38" y="107" width="12" height="12" fill="#62bad5"/>
  <rect x="50" y="107" width="12" height="12" fill="#47a8dc"/>
  <rect x="110" y="107" width="12" height="12" fill="#3d89fb"/>
  <rect x="122" y="107" width="12" height="12" fill="#4a81f0"/>
  <rect x="134" y="107" width="12" height="12" fill="#6579e1"/>
  <rect x="26" y="119" width="12" height="12" fill="#6bc7a3"/>
  <rect x="38" y="119" width="12" height="12" fill="#64b6f6"/>
  <rect x="122" y="119" width="12" height="12" fill="#3886fb"/>
  <rect x="134" y="119" width="12" height="12" fill="#4881f4"/>
  <rect x="14" y="131" width="12" height="12" fill="#67b9f4"/>
  <rect x="26" y="131" width="12" height="12" fill="#64b6f6"/>
  <rect x="134" y="131" width="12" height="12" fill="#3883f9"/>
  <rect x="146" y="131" width="12" height="12" fill="#3d85fc"/>
</svg>
